inDegrees=no
num_controls=7
num_derivatives=13
num_iterations=38
num_multipliers=7
num_parameters=0
num_slacks=7
num_states=26
objective=0.426523
objective_accelerations=0.057900
objective_balance=0.001138
objective_effort=0.015350
objective_height=0.346168
objective_ligament=0.005966
solver_duration=614.227376
status=Solve_Succeeded
success=true
DataType=double
version=3
OpenSimVersion=4.5
endheader
time	/jointset/ground_pelvis/pelvis_tilt/value	/jointset/ground_pelvis/pelvis_tx/value	/jointset/ground_pelvis/pelvis_ty/value	/jointset/hip_l/hip_flexion_l/value	/jointset/hip_l/hip_adduction_l/value	/jointset/hip_l/hip_rotation_l/value	/jointset/back/lumbar_extension/value	/jointset/patellofemoral_l/patellar_flexion_l/value	/jointset/knee_l/knee_flexion_l/value	/jointset/knee_l/knee_adduction_l/value	/jointset/knee_l/knee_rotation_l/value	/jointset/ankle_l/ankle_angle_l/value	/jointset/subtalar_l/subtalar_angle_l/value	/jointset/ground_pelvis/pelvis_tilt/speed	/jointset/ground_pelvis/pelvis_tx/speed	/jointset/ground_pelvis/pelvis_ty/speed	/jointset/hip_l/hip_flexion_l/speed	/jointset/hip_l/hip_adduction_l/speed	/jointset/hip_l/hip_rotation_l/speed	/jointset/back/lumbar_extension/speed	/jointset/patellofemoral_l/patellar_flexion_l/speed	/jointset/knee_l/knee_flexion_l/speed	/jointset/knee_l/knee_adduction_l/speed	/jointset/knee_l/knee_rotation_l/speed	/jointset/ankle_l/ankle_angle_l/speed	/jointset/subtalar_l/subtalar_angle_l/speed	/forceset/tau_hip_flexion_l	/forceset/tau_hip_adduction_l	/forceset/tau_hip_rotation_l	/forceset/tau_knee_flexion_l	/forceset/tau_ankle_angle_l	/forceset/tau_subtalar_angle_l	/forceset/tau_lumbar_extension	lambda_cid13_p0	lambda_cid13_p1	lambda_cid13_p2	lambda_cid13_p3	lambda_cid13_p4	lambda_cid13_p5	lambda_cid14_p0	/jointset/ground_pelvis/pelvis_tilt/accel	/jointset/ground_pelvis/pelvis_tx/accel	/jointset/ground_pelvis/pelvis_ty/accel	/jointset/hip_l/hip_flexion_l/accel	/jointset/hip_l/hip_adduction_l/accel	/jointset/hip_l/hip_rotation_l/accel	/jointset/back/lumbar_extension/accel	/jointset/patellofemoral_l/patellar_flexion_l/accel	/jointset/knee_l/knee_flexion_l/accel	/jointset/knee_l/knee_adduction_l/accel	/jointset/knee_l/knee_rotation_l/accel	/jointset/ankle_l/ankle_angle_l/accel	/jointset/subtalar_l/subtalar_angle_l/accel	gamma_cid13_p0	gamma_cid13_p1	gamma_cid13_p2	gamma_cid13_p3	gamma_cid13_p4	gamma_cid13_p5	gamma_cid14_p0
0.5	-0.2111864162944097	0.03501823011507675	0.7725804980543842	0.9808986217253463	-0.3628070324446891	-0.004700858197923011	-0.4005087371206041	0.961919663691627	0.961919663691623	-0.02975095814533638	-0.1742700816410618	0.3211862343445829	0.1676474471357401	-0.730837101801211	-0.1700832344853372	-0.5232809428720059	2.37092821821981	0.04133406259609294	0.5228449554272404	-0.3097782592262353	2.005218948966546	2.005218948966528	0.3306659178041653	0.002299021145970139	0.532493834526157	0.28387573920841	-0.1021329912712427	0.08023199517711591	-0.002443802850548204	-0.1976593339366054	0.009251718711738481	-0.01843920270661377	0.1152794734203742	-24.4898350156712	17.22035292223107	-8.651042819674091	1.320912855996927	-439.1582066345445	-23.51373799175713	-4.774972834779961	0.305011677231089	0.3571770332242122	-0.4842255894853231	-1.105534804310523	0.09199132281520918	-0.7839809512889065	1.414061978588687	-1.584038077621884	-1.584038077621884	-0.1778818790824692	0.01655108095002985	-0.9449243148209771	0.06059302437998502	-4.827466153792203e-07	2.873942878731365e-08	7.003044106170178e-06	4.202887296715671e-07	-1.401776555178662e-06	-1.147262274680446e-06	-8.270906169127974e-07
0.51	-0.2184774606410731	0.03333561428835807	0.7673248185317922	1.004547530778896	-0.3623918808674167	0.0004951767623288431	-0.4035366031461164	0.9818888903300983	0.9818888903300165	-0.02646393872673224	-0.1742459316955911	0.3264622449240808	0.1704843969816496	-0.7272683216858056	-0.1664129347722048	-0.5277313106954201	2.358519241092501	0.04168861413930931	0.5163107297739961	-0.2957593906287024	1.988333918217931	1.988333918217922	0.326719294498146	0.002497869900456743	0.5226336951704873	0.2834546971419414	-0.1067023200418423	0.08131330264698647	-0.002971659657625308	-0.2003595182325248	0.00814914731788067	-0.01785104149736884	0.1188172958948745	-25.05045520671194	17.27242213449285	-8.898470713844295	1.361776723211879	-442.5417623697799	-23.52294299586632	-4.153464475670757	0.3983055809497382	0.3760962936029195	-0.4071699070973646	-1.358783548278079	0.004940903626160976	-0.5966408233385436	1.401132587806631	-1.78444207671782	-1.784442076716565	-0.50575055831016	0.01792555600009236	-1.017743908701095	-0.1032642003904506	-4.59407285027903e-07	4.469005119294154e-07	6.966514852476732e-06	4.695147514604216e-07	-1.33971637869728e-06	-7.034998430862592e-07	-7.986583157448211e-07
0.52	-0.2257297183061392	0.03169052942941877	0.7620282898253016	1.028062309184913	-0.3619736330079996	0.005624169975845736	-0.4064232138281564	1.001680525360427	1.001680525360288	-0.02321692514154865	-0.1742205185059262	0.3316374170774703	0.1733151741312485	-0.7230797654801784	-0.1625770409294637	-0.5314507796518056	2.34410208871172	0.04195331902457704	0.5094366060808984	-0.2815271905322844	1.96970062733986	1.96970062733986	0.3226647511141889	0.002551669987028749	0.5123261493043728	0.2826411999462662	-0.1112716488123079	0.08239461011684308	-0.003499516464503089	-0.2030597025284237	0.007046575924014881	-0.01726288028814933	0.1223551183695029	-25.60579571184105	17.31446089072137	-9.133894397870945	1.358399305419547	-445.8407958840578	-23.64990000829516	-3.58154934008634	0.4289668952756991	0.3902958591457028	-0.3380458160796074	-1.507169855004751	0.07402199122553102	-0.8519605592595865	1.456728278365851	-1.933690103513298	-1.933690103513302	-0.1994658946699502	-0.01245865263292126	-1.03440561691031	-0.01789800146140356	-4.338492749420131e-07	7.86564533194457e-07	6.859848844454888e-06	5.044872369620252e-07	-1.266702550251954e-06	-2.841076055732684e-07	-7.699561937723961e-07
0.53	-0.2329372295829428	0.03008454301593623	0.7566982402017838	1.051423364306569	-0.3615528191782074	0.01068300430609236	-0.4091664718973654	1.021277416143401	1.021277416143359	-0.02001061168649033	-0.1741949201621382	0.3367074595369338	0.17613633138501	-0.7183276466674038	-0.1586009583573261	-0.5344313917395612	2.327790704315682	0.04220922309489198	0.5022510576700048	-0.2671082374623718	1.949396196393798	1.949396196393799	0.3186164816201935	0.002530862628304527	0.5016136979122821	0.2815398375559673	-0.1157710242645537	0.08327691671396782	-0.003871801201248103	-0.2060337448710032	0.006035728631764339	-0.01684718427067759	0.1257988440520922	-26.16310474534284	17.44978740735746	-9.404802219754242	1.434077342621946	-449.3012978264051	-23.68803965025952	-3.058146183368824	0.5125447242703217	0.4042615383550639	-0.2591515787316885	-1.74090119347995	0.0002391899560423643	-0.6644520309074585	1.436906698699355	-2.120868543002409	-2.120868543002252	-0.5045770984197959	-0.001130384913046773	-1.099930467115705	-0.1647820157601057	-4.085207622094894e-07	1.090910915311733e-06	6.735412385399525e-06	5.342457553316502e-07	-1.195858624029854e-06	1.028532657398132e-07	-7.409745103829157e-07
0.54	-0.2400943776016283	0.02851891684459559	0.7513421679226677	1.074611749891957	-0.3611296733927062	0.01566746314244506	-0.4117650548603928	1.04066285282634	1.040662852826405	-0.01684419485068554	-0.1741703776134221	0.3416683243691268	0.1789447696832793	-0.713007113854907	-0.1545049925010823	-0.5366553107714985	2.309568181456583	0.04241971016607218	0.4945615073029829	-0.2525921692966018	1.927409807333752	1.927409807333756	0.3146854272599806	0.002340510972745897	0.4904906238499016	0.2800974088478291	-0.120270399716658	0.08415922331106615	-0.004244085937864273	-0.2090077872135651	0.005024881339500181	-0.01643148825325106	0.129242569734819	-26.71668927823216	17.57643855097832	-9.665158616591473	1.46937619630804	-452.6964976504443	-23.83733917921055	-2.581962376461777	0.5426496952204056	0.4142725159666782	-0.1867072049159838	-1.889397547617143	0.06493859139863266	-0.9527609504852518	1.476151297537472	-2.270081726309795	-2.270081726309794	-0.1760228679134003	-0.04636751199983215	-1.1165301509686	-0.08611126502936009	-3.834461614423919e-07	1.356182462627224e-06	6.591315001796443e-06	5.582356292148309e-07	-1.127415440693025e-06	4.539326255125697e-07	-7.116835250000975e-07
